<svg viewBox="0 0 304 52" xmlns="http://www.w3.org/2000/svg">
    <style>
        #valet { fill: #2e2e2e } @media (prefers-color-scheme:dark) { #valet { fill: #fff } }
    </style>
    <path fill-rule="evenodd" clip-rule="evenodd" d="M0.5 6.19996C0.5 0.699959 4.1 -1.10004 8.5 2.19996L40.5 26.2L72.5 2.19996C76.9 -1.10004 80.5 0.699959 80.5 6.19996V46.2C80.5 51.7 76.9 53.5 72.5 50.2L40.5 26.2L8.5 50.2C4.1 53.5 0.5 51.7 0.5 46.2V6.19996Z" fill="url(#gradient)"/>
    <path id="valet" fill-rule="evenodd" clip-rule="evenodd" d="M237.3 36.3L237.4 36.8L237.6 36.3L245.7 13.9H248.1L238.6 39.5H236.5L227 13.9H229.4L237.3 36.3ZM262.5 39.5C262.3 38.9 262.2 38 262.1 36.8C261.4 37.8 260.4 38.5 259.3 39C258.2 39.5 256.9 39.8 255.7 39.8C253.9 39.8 252.4 39.3 251.3 38.3C250.2 37.3 249.6 36 249.6 34.4C249.6 32.6 250.4 31.1 251.9 30C253.4 28.9 255.6 28.4 258.3 28.4H262.1V26.2C262.1 24.8 261.7 23.8 260.8 23C260 22.2 258.7 21.8 257.1 21.8C255.6 21.8 254.4 22.2 253.5 22.9C252.5 23.7 252.1 24.6 252.1 25.6H250C250 24.1 250.7 22.8 252.1 21.7C253.5 20.6 255.2 20 257.3 20C259.4 20 261.1 20.5 262.3 21.6C263.5 22.7 264.2 24.1 264.2 26V35C264.2 36.8 264.4 38.2 264.8 39.1V39.3H262.5V39.5ZM255.9 38C257.3 38 258.6 37.7 259.7 37C260.8 36.3 261.6 35.4 262.1 34.3V30.1H258.3C256.2 30.1 254.6 30.5 253.4 31.3C252.2 32 251.6 33.1 251.6 34.4C251.6 35.5 252 36.4 252.8 37.1C253.6 37.6 254.6 38 255.9 38ZM272.1 39.5H270V12.5H272.1V39.5ZM285.2 39.9C283.6 39.9 282.1 39.5 280.8 38.7C279.5 37.9 278.5 36.8 277.8 35.4C277.1 34 276.7 32.4 276.7 30.6V29.8C276.7 28 277.1 26.3 277.8 24.9C278.5 23.4 279.5 22.3 280.8 21.4C282.1 20.6 283.4 20.1 284.9 20.1C287.2 20.1 289 20.9 290.4 22.5C291.8 24.1 292.4 26.2 292.4 29V30.2H278.8V30.6C278.8 32.8 279.4 34.6 280.7 36C281.9 37.4 283.5 38.2 285.4 38.2C286.5 38.2 287.5 38 288.4 37.6C289.3 37.2 290 36.5 290.7 35.6L292 36.6C290.4 38.7 288.2 39.9 285.2 39.9ZM284.8 21.9C283.2 21.9 281.9 22.5 280.8 23.6C279.7 24.8 279.1 26.3 278.8 28.3H290.2V28.1C290.1 26.3 289.6 24.8 288.6 23.6C287.7 22.5 286.4 21.9 284.8 21.9ZM299.7 15.6V20.5H303.6V22.2H299.7V34.9C299.7 36 299.9 36.7 300.3 37.3C300.7 37.8 301.3 38.1 302.2 38.1C302.6 38.1 303.1 38 303.9 37.9L304 39.6C303.5 39.8 302.7 39.9 301.8 39.9C300.4 39.9 299.3 39.5 298.7 38.6C298 37.8 297.7 36.5 297.7 34.9V22.2H294.2V20.5H297.7V15.6H299.7Z"/>
    <path id="valet" fill-rule="evenodd" clip-rule="evenodd" d="M107.8 35.3H119V39.5H102.5V13.9H107.8V35.3ZM137.1 35.1V26.9C137.1 24.8 136.4 23.1 135 21.9C133.6 20.7 131.8 20.1 129.4 20.1C127.9 20.1 126.5 20.4 125.2 20.9C124 21.4 123 22.2 122.3 23.1C121.6 24 121.3 25.1 121.3 26.2H126.4C126.4 25.5 126.6 24.9 127.1 24.5C127.6 24.1 128.3 23.9 129.1 23.9C130.1 23.9 130.8 24.2 131.2 24.7C131.7 25.2 131.9 25.9 131.9 26.8V27.9H129.6C126.8 27.9 124.6 28.5 123.1 29.5C121.6 30.6 120.9 32.1 120.9 34.1C120.9 35.7 121.5 37.1 122.7 38.2C123.9 39.3 125.5 39.8 127.3 39.8C129.3 39.8 130.9 39.1 132.1 37.7C132.2 38.4 132.4 38.9 132.6 39.4H137.7V39.1C137.3 38.3 137.1 36.9 137.1 35.1ZM132 34.1C131.7 34.7 131.2 35.1 130.6 35.4C130 35.7 129.3 35.9 128.5 35.9C127.7 35.9 127.1 35.7 126.7 35.3C126.3 34.9 126 34.4 126 33.7V33.4C126.2 31.6 127.5 30.8 130.1 30.8H132V34.1ZM151.6 25.2C150.9 25.1 150.3 25.1 149.8 25.1C147.9 25.1 146.6 25.7 146 27.1V39.5H141V20.5H145.8L145.9 22.8C146.9 21.1 148.3 20.2 150.1 20.2C150.7 20.2 151.2 20.3 151.7 20.4L151.6 25.2ZM169 35.1V26.9C169 24.8 168.3 23.1 166.9 21.9C165.5 20.7 163.7 20.1 161.3 20.1C159.8 20.1 158.4 20.4 157.1 20.9C155.9 21.4 154.9 22.2 154.2 23.1C153.5 24 153.2 25.1 153.2 26.2H158.3C158.3 25.5 158.5 24.9 159 24.5C159.5 24.1 160.2 23.9 161 23.9C162 23.9 162.7 24.2 163.1 24.7C163.6 25.2 163.8 25.9 163.8 26.8V27.9H161.5C158.7 27.9 156.5 28.5 155 29.5C153.5 30.6 152.8 32.1 152.8 34.1C152.8 35.7 153.4 37.1 154.6 38.2C155.8 39.3 157.4 39.8 159.2 39.8C161.2 39.8 162.8 39.1 164 37.7C164.1 38.4 164.3 38.9 164.5 39.4H169.6V39.1C169.2 38.3 169 36.9 169 35.1ZM163.9 34.1C163.6 34.7 163.1 35.1 162.5 35.4C161.9 35.7 161.2 35.9 160.4 35.9C159.6 35.9 159 35.7 158.6 35.3C158.2 34.9 157.9 34.4 157.9 33.7V33.4C158.1 31.6 159.4 30.8 162 30.8H163.9V34.1ZM179.7 33.3L183.3 20.5H188.6L182.1 39.5H177.3L170.9 20.5H176.2L179.7 33.3ZM207.1 29.6C207.1 26.6 206.4 24.3 204.9 22.6C203.4 21 201.4 20.1 198.8 20.1C197.1 20.1 195.5 20.5 194.2 21.3C192.8 22.1 191.8 23.3 191.1 24.8C190.4 26.3 190 28 190 29.9V30.4C190 33.2 190.9 35.5 192.6 37.2C194.4 38.9 196.6 39.8 199.4 39.8C201 39.8 202.4 39.5 203.7 38.9C205 38.3 206 37.5 206.8 36.4L204.3 33.6C203.2 35 201.7 35.7 199.7 35.7C198.4 35.7 197.4 35.3 196.6 34.6C195.8 33.8 195.3 32.9 195.1 31.6H207.2V29.6H207.1ZM202.2 28.2H195.1C195.3 26.9 195.7 26 196.3 25.3C196.9 24.6 197.7 24.3 198.8 24.3C199.9 24.3 200.7 24.6 201.3 25.2C201.9 25.8 202.2 26.7 202.2 27.8V28.2ZM215.4 39.5H210.3V12.5H215.4V39.5Z"/>
    <defs>
        <linearGradient id="gradient" x1="40.5" y1="0.473728" x2="40.5" y2="51.7986" gradientUnits="userSpaceOnUse">
            <stop stop-color="#BD74E6"/>
            <stop offset="1" stop-color="#4B40C8"/>
        </linearGradient>
    </defs>
</svg>
