<svg xmlns="http://www.w3.org/2000/svg" width="307" height="55" viewBox="0 0 307 55"><style>.st0,.st1{fill-rule:evenodd;clip-rule:evenodd;fill:#fff}.st1{fill:#2e2e2e}</style><path class="st0" d="M209.3 11.5v13.9c-.5-1.2-1.1-2.3-1.9-3.2-1.9-2.1-4.4-3.1-7.6-3.1-2.1 0-4 .5-5.7 1.5-1.3.8-2.3 1.8-3.2 3l1.4-4.2h-9.6l-2 7.3-2-7.3h-9.6l.9 2.7c-.2-.3-.5-.6-.8-.8-1.7-1.5-4.1-2.2-6.9-2.2-1.8 0-3.5.3-5 1-1 .4-1.9 1-2.6 1.7v-1.9l-1.4-.4c-.7-.2-1.4-.3-2.2-.3-.7 0-1.6.1-2.5.5v-.1H140v7c-.3-2.1-1.2-3.8-2.7-5.1-1.7-1.5-4.1-2.2-6.9-2.2-1.8 0-3.5.3-5 1-1.6.7-2.8 1.6-3.7 2.9-.9 1.3-1.4 2.7-1.4 4.2v2h2.3c-1.5 1.3-2.4 3-2.6 5.1h-9.2V12.9h-9.3v29.6H122v-2.2l.4.4c1.6 1.4 3.6 2.1 6 2.1.9 0 1.8-.1 2.6-.3h18.1V28.6c.2-.2.7-.5 1.8-.5.4 0 .9 0 1.4.1v1h2.3c-1.8 1.4-2.7 3.5-2.7 6 0 2.2.9 4.1 2.5 5.6 1.6 1.4 3.6 2.1 6 2.1.9 0 1.8-.1 2.6-.3h9.9v-2.8l-.2-.4c-.2-.4-.5-1.2-.5-3.2V28l4.9 14.5h7.7l4.4-13c0 .5-.1.9-.1 1.4v.5c0 3.4 1.1 6.2 3.2 8.3 2.1 2.1 4.9 3.1 8.2 3.1 1.9 0 3.6-.4 5.2-1.1a9 9 0 0 0 3.8-3.1v3.8h9.1v-31h-9.3zm-1.4 23.1h1.4v1.5l-1.4-1.5zM302.7 42.4c-1.9 0-3.4-.6-4.3-1.8-.9-1.1-1.3-2.7-1.3-4.6V24.7h-3.3c.7 1.5 1 3.2 1 5.2v2.7h-13.5c.2 1.3.6 2.4 1.4 3.3.9 1.1 2.1 1.6 3.5 1.6.9 0 1.7-.2 2.3-.5.6-.3 1.3-.8 1.8-1.5l.9-1.2 3.6 2.8-.8 1.2c-1.8 2.7-4.5 4-8 4-1.9 0-3.6-.5-5.2-1.4-1.5-.9-2.8-2.3-3.6-3.9-.8-1.6-1.3-3.5-1.3-5.5v-.8c0-2 .4-3.9 1.2-5.6.8-1.7 2-3.1 3.5-4.1 1.5-1 3.2-1.5 4.9-1.5 2.8 0 5 1 6.6 2.9.4.5.8 1.1 1.2 1.7V20h3.5v-4.9h4.2l.9.9v4h3.9v4.7h-3.9v11.2c0 1 .2 1.4.3 1.5.1.1.3.2.7.2.2 0 .5 0 1.5-.2l1.6-.2.2 4.5-1 .4c-.4.1-1.3.3-2.5.3zm-13.1-14.6c-.2-.9-.5-1.6-1.1-2.2-.7-.8-1.6-1.2-2.7-1.2-1.2 0-2.1.4-2.9 1.3-.5.6-.9 1.3-1.2 2.2h7.9zm-32.9 14.6c-2.2 0-4-.6-5.4-1.9-1.5-1.3-2.2-3-2.2-5 0-2.3 1-4.3 3-5.6 1.8-1.3 4.2-1.9 7.3-1.9h2.3v-.7c0-.9-.2-1.6-.8-2.1-.5-.5-1.4-.8-2.6-.8-1.1 0-2 .3-2.7.8-.8.6-.9 1.1-.9 1.5v1.5h-5.1v-1.5c0-2 .9-3.7 2.7-5.1 1.7-1.3 3.7-2 6.1-2 2.5 0 4.5.7 6 2 1.6 1.3 2.4 3.2 2.4 5.5v9c0 2 .3 3 .5 3.5l.1.3v2h-4.8s-.4-1.1-.4-1.2c-.4.2-.7.4-1.1.6-1.5.7-3 1.1-4.4 1.1zm2.6-9.8c-1.8 0-3.2.3-4.1.9-.7.5-1.1 1-1.1 1.8 0 .6.2 1.1.7 1.5.5.5 1.2.7 2.1.7 1.1 0 2.1-.3 3-.8.8-.5 1.3-1.1 1.7-1.8v-2.3h-2.3zm10.2 9.4V12h5.1v30h-5.1zm-33.1 0-10.6-28.6h5.6l7.1 19.9 7.1-19.9h5.6L240.6 42h-4.2z"/><path class="st1" d="m238.3 37.3.1.5.2-.5 8.1-22.4h2.4l-9.5 25.6h-2.1L228 14.9h2.4l7.9 22.4zm25.2 3.2c-.2-.6-.3-1.5-.4-2.7-.7 1-1.7 1.7-2.8 2.2-1.1.5-2.4.8-3.6.8-1.8 0-3.3-.5-4.4-1.5-1.1-1-1.7-2.3-1.7-3.9 0-1.8.8-3.3 2.3-4.4 1.5-1.1 3.7-1.6 6.4-1.6h3.8v-2.2c0-1.4-.4-2.4-1.3-3.2-.8-.8-2.1-1.2-3.7-1.2-1.5 0-2.7.4-3.6 1.1-1 .8-1.4 1.7-1.4 2.7H251c0-1.5.7-2.8 2.1-3.9s3.1-1.7 5.2-1.7 3.8.5 5 1.6c1.2 1.1 1.9 2.5 1.9 4.4v9c0 1.8.2 3.2.6 4.1v.2h-2.3zm-6.6-1.5c1.4 0 2.7-.3 3.8-1 1.1-.7 1.9-1.6 2.4-2.7v-4.2h-3.8c-2.1 0-3.7.4-4.9 1.2-1.2.7-1.8 1.8-1.8 3.1 0 1.1.4 2 1.2 2.7.8.5 1.8.9 3.1.9zm16.2 1.5H271v-27h2.1v27zm13.1.4c-1.6 0-3.1-.4-4.4-1.2-1.3-.8-2.3-1.9-3-3.3-.7-1.4-1.1-3-1.1-4.8v-.8c0-1.8.4-3.5 1.1-4.9.7-1.5 1.7-2.6 3-3.5 1.3-.8 2.6-1.3 4.1-1.3 2.3 0 4.1.8 5.5 2.4 1.4 1.6 2 3.7 2 6.5v1.2h-13.6v.4c0 2.2.6 4 1.9 5.4 1.2 1.4 2.8 2.2 4.7 2.2 1.1 0 2.1-.2 3-.6.9-.4 1.6-1.1 2.3-2l1.3 1c-1.6 2.1-3.8 3.3-6.8 3.3zm-.4-18c-1.6 0-2.9.6-4 1.7-1.1 1.2-1.7 2.7-2 4.7h11.4v-.2c-.1-1.8-.6-3.3-1.6-4.5-.9-1.1-2.2-1.7-3.8-1.7zm14.9-6.3v4.9h3.9v1.7h-3.9v12.7c0 1.1.2 1.8.6 2.4.4.5 1 .8 1.9.8.4 0 .9-.1 1.7-.2l.1 1.7c-.5.2-1.3.3-2.2.3-1.4 0-2.5-.4-3.1-1.3-.7-.8-1-2.1-1-3.7V23.2h-3.5v-1.7h3.5v-4.9h2z"/><path class="st0" d="M5.4 54.3c-2.5 0-5.4-1.9-5.4-7.2v-40C0 1.9 2.9 0 5.4 0c1.6 0 3.3.7 5 2l31.1 23.3L72.6 2c1.7-1.3 3.4-2 5-2C80.1 0 83 1.9 83 7.2v40c0 5.3-2.9 7.2-5.4 7.2-1.6 0-3.3-.7-5-2L41.5 29 10.4 52.4c-1.7 1.2-3.4 1.9-5 1.9z"/><linearGradient id="SVGID_1_" gradientUnits="userSpaceOnUse" x1="11.875" y1="303.688" x2="11.875" y2="302.688" gradientTransform="matrix(80 0 0 -51.3249 -908.5 15588.23)"><stop offset="0" stop-color="#bd74e6"/><stop offset="1" stop-color="#4b40c8"/></linearGradient><path d="M1.5 7.2c0-5.5 3.6-7.3 8-4l32 24 32-24c4.4-3.3 8-1.5 8 4v40c0 5.5-3.6 7.3-8 4l-32-24-32 24c-4.4 3.3-8 1.5-8-4v-40z" fill-rule="evenodd" clip-rule="evenodd" fill="url(#SVGID_1_)"/><path class="st1" d="M108.8 36.3H120v4.2h-16.5V14.9h5.3zM138.1 36.1v-8.2c0-2.1-.7-3.8-2.1-5-1.4-1.2-3.2-1.8-5.6-1.8-1.5 0-2.9.3-4.2.8-1.2.5-2.2 1.3-2.9 2.2-.7.9-1 2-1 3.1h5.1c0-.7.2-1.3.7-1.7.5-.4 1.2-.6 2-.6 1 0 1.7.3 2.1.8.5.5.7 1.2.7 2.1v1.1h-2.3c-2.8 0-5 .6-6.5 1.6-1.5 1.1-2.2 2.6-2.2 4.6 0 1.6.6 3 1.8 4.1 1.2 1.1 2.8 1.6 4.6 1.6 2 0 3.6-.7 4.8-2.1.1.7.3 1.2.5 1.7h5.1v-.3c-.4-.8-.6-2.2-.6-4zm-5.1-1c-.3.6-.8 1-1.4 1.3-.6.3-1.3.5-2.1.5s-1.4-.2-1.8-.6c-.4-.4-.7-.9-.7-1.6v-.3c.2-1.8 1.5-2.6 4.1-2.6h1.9v3.3zM152.6 26.2c-.7-.1-1.3-.1-1.8-.1-1.9 0-3.2.6-3.8 2v12.4h-5v-19h4.8l.1 2.3c1-1.7 2.4-2.6 4.2-2.6.6 0 1.1.1 1.6.2l-.1 4.8zM170 36.1v-8.2c0-2.1-.7-3.8-2.1-5-1.4-1.2-3.2-1.8-5.6-1.8-1.5 0-2.9.3-4.2.8-1.2.5-2.2 1.3-2.9 2.2s-1 2-1 3.1h5.1c0-.7.2-1.3.7-1.7.5-.4 1.2-.6 2-.6 1 0 1.7.3 2.1.8.5.5.7 1.2.7 2.1v1.1h-2.3c-2.8 0-5 .6-6.5 1.6-1.5 1.1-2.2 2.6-2.2 4.6 0 1.6.6 3 1.8 4.1 1.2 1.1 2.8 1.6 4.6 1.6 2 0 3.6-.7 4.8-2.1.1.7.3 1.2.5 1.7h5.1v-.3c-.4-.8-.6-2.2-.6-4zm-5.1-1c-.3.6-.8 1-1.4 1.3-.6.3-1.3.5-2.1.5s-1.4-.2-1.8-.6c-.4-.4-.7-.9-.7-1.6v-.3c.2-1.8 1.5-2.6 4.1-2.6h1.9v3.3zM180.7 34.3l3.6-12.8h5.3l-6.5 19h-4.8l-6.4-19h5.3l3.5 12.8zM208.1 30.6c0-3-.7-5.3-2.2-7-1.5-1.6-3.5-2.5-6.1-2.5-1.7 0-3.3.4-4.6 1.2-1.4.8-2.4 2-3.1 3.5-.7 1.5-1.1 3.2-1.1 5.1v.5c0 2.8.9 5.1 2.6 6.8 1.8 1.7 4 2.6 6.8 2.6 1.6 0 3-.3 4.3-.9 1.3-.6 2.3-1.4 3.1-2.5l-2.5-2.8c-1.1 1.4-2.6 2.1-4.6 2.1-1.3 0-2.3-.4-3.1-1.1-.8-.8-1.3-1.7-1.5-3h12.1v-2zm-4.9-1.4h-7.1c.2-1.3.6-2.2 1.2-2.9.6-.7 1.4-1 2.5-1s1.9.3 2.5.9.9 1.5.9 2.6v.4zM216.4 40.5h-5.1v-27h5.1v27z"/></svg>